<mxfile host="Electron" agent="Mozilla/5.0 (Windows NT 10.0; Win64; x64) AppleWebKit/537.36 (KHTML, like Gecko) draw.io/24.7.17 Chrome/128.0.6613.36 Electron/32.0.1 Safari/537.36" version="24.7.17">
  <diagram name="Page-1" id="gs_aOqwsEI-hXeiFnMBu">
    <mxGraphModel dx="1235" dy="787" grid="1" gridSize="10" guides="1" tooltips="1" connect="1" arrows="1" fold="1" page="1" pageScale="1" pageWidth="850" pageHeight="1100" math="0" shadow="0">
      <root>
        <mxCell id="0" />
        <mxCell id="1" parent="0" />
        <mxCell id="WsgM8p-42U-ugkuJ-MHo-3" value="" style="rounded=0;whiteSpace=wrap;html=1;pointerEvents=0;strokeColor=default;strokeWidth=2;align=center;verticalAlign=middle;fontFamily=Helvetica;fontSize=16;fontColor=default;fontStyle=1;fillColor=none;glass=0;" vertex="1" parent="1">
          <mxGeometry x="80" y="50" width="710" height="880" as="geometry" />
        </mxCell>
        <mxCell id="CfmcXVOaQfcL6Jrz_3zt-61" style="edgeStyle=orthogonalEdgeStyle;curved=0;rounded=1;orthogonalLoop=1;jettySize=auto;html=1;exitX=1;exitY=0.3333333333333333;exitDx=0;exitDy=0;exitPerimeter=0;elbow=vertical;endArrow=none;endFill=0;fillColor=#60a917;strokeColor=#2D7600;entryX=0;entryY=1;entryDx=0;entryDy=0;" parent="1" source="CfmcXVOaQfcL6Jrz_3zt-5" target="CfmcXVOaQfcL6Jrz_3zt-29" edge="1">
          <mxGeometry relative="1" as="geometry">
            <Array as="points">
              <mxPoint x="90" y="599" />
              <mxPoint x="90" y="540" />
              <mxPoint x="120" y="540" />
              <mxPoint x="120" y="253" />
              <mxPoint x="390" y="253" />
            </Array>
          </mxGeometry>
        </mxCell>
        <mxCell id="CfmcXVOaQfcL6Jrz_3zt-181" style="edgeStyle=none;rounded=1;orthogonalLoop=1;jettySize=auto;html=1;exitX=1;exitY=0.3333333333333333;exitDx=0;exitDy=0;exitPerimeter=0;entryX=0;entryY=0.5;entryDx=0;entryDy=0;elbow=vertical;curved=0;fillColor=#60a917;strokeColor=#2D7600;endArrow=none;endFill=0;" parent="1" source="CfmcXVOaQfcL6Jrz_3zt-5" target="CfmcXVOaQfcL6Jrz_3zt-36" edge="1">
          <mxGeometry relative="1" as="geometry">
            <Array as="points">
              <mxPoint x="90" y="599" />
              <mxPoint x="90" y="540" />
              <mxPoint x="120" y="540" />
              <mxPoint x="120" y="460" />
              <mxPoint x="350" y="460" />
            </Array>
          </mxGeometry>
        </mxCell>
        <mxCell id="CfmcXVOaQfcL6Jrz_3zt-231" style="edgeStyle=none;rounded=1;orthogonalLoop=1;jettySize=auto;html=1;exitX=1;exitY=0.3333333333333333;exitDx=0;exitDy=0;exitPerimeter=0;entryX=0;entryY=1;entryDx=0;entryDy=0;elbow=vertical;fillColor=#60a917;strokeColor=#2D7600;endArrow=none;endFill=0;curved=0;" parent="1" source="CfmcXVOaQfcL6Jrz_3zt-5" target="CfmcXVOaQfcL6Jrz_3zt-17" edge="1">
          <mxGeometry relative="1" as="geometry">
            <Array as="points">
              <mxPoint x="90" y="599" />
              <mxPoint x="90" y="900" />
              <mxPoint x="280" y="900" />
            </Array>
          </mxGeometry>
        </mxCell>
        <mxCell id="CfmcXVOaQfcL6Jrz_3zt-232" style="edgeStyle=none;rounded=1;orthogonalLoop=1;jettySize=auto;html=1;exitX=1;exitY=0.3333333333333333;exitDx=0;exitDy=0;exitPerimeter=0;entryX=0.5;entryY=1;entryDx=0;entryDy=0;elbow=vertical;fillColor=#60a917;strokeColor=#2D7600;curved=0;endArrow=none;endFill=0;" parent="1" source="CfmcXVOaQfcL6Jrz_3zt-5" target="CfmcXVOaQfcL6Jrz_3zt-16" edge="1">
          <mxGeometry relative="1" as="geometry">
            <Array as="points">
              <mxPoint x="90" y="599" />
              <mxPoint x="90" y="900" />
              <mxPoint x="718" y="900" />
            </Array>
          </mxGeometry>
        </mxCell>
        <mxCell id="CfmcXVOaQfcL6Jrz_3zt-239" style="edgeStyle=none;rounded=1;orthogonalLoop=1;jettySize=auto;html=1;exitX=1;exitY=0.3333333333333333;exitDx=0;exitDy=0;exitPerimeter=0;entryX=0.5;entryY=1;entryDx=0;entryDy=0;elbow=vertical;curved=0;endArrow=none;endFill=0;fillColor=#60a917;strokeColor=#2D7600;" parent="1" source="CfmcXVOaQfcL6Jrz_3zt-5" target="CfmcXVOaQfcL6Jrz_3zt-21" edge="1">
          <mxGeometry relative="1" as="geometry">
            <Array as="points">
              <mxPoint x="90" y="599" />
              <mxPoint x="90" y="900" />
              <mxPoint x="620" y="900" />
            </Array>
          </mxGeometry>
        </mxCell>
        <mxCell id="GW-0ELmirw-C5afW0s54-2" style="edgeStyle=orthogonalEdgeStyle;rounded=1;orthogonalLoop=1;jettySize=auto;html=1;exitX=1;exitY=0.3333333333333333;exitDx=0;exitDy=0;exitPerimeter=0;entryX=0.5;entryY=0;entryDx=0;entryDy=0;fillColor=#60a917;strokeColor=#2D7600;endArrow=none;endFill=0;curved=0;" parent="1" source="CfmcXVOaQfcL6Jrz_3zt-5" target="CfmcXVOaQfcL6Jrz_3zt-126" edge="1">
          <mxGeometry relative="1" as="geometry">
            <Array as="points">
              <mxPoint x="90" y="599" />
              <mxPoint x="90" y="540" />
              <mxPoint x="120" y="540" />
              <mxPoint x="120" y="460" />
              <mxPoint x="300" y="460" />
              <mxPoint x="300" y="486" />
            </Array>
          </mxGeometry>
        </mxCell>
        <mxCell id="GW-0ELmirw-C5afW0s54-3" style="edgeStyle=orthogonalEdgeStyle;rounded=1;orthogonalLoop=1;jettySize=auto;html=1;exitX=1;exitY=0.3333333333333333;exitDx=0;exitDy=0;exitPerimeter=0;entryX=0;entryY=0.5;entryDx=0;entryDy=0;curved=0;endArrow=none;endFill=0;fillColor=#60a917;strokeColor=#2D7600;" parent="1" source="CfmcXVOaQfcL6Jrz_3zt-5" target="CfmcXVOaQfcL6Jrz_3zt-67" edge="1">
          <mxGeometry relative="1" as="geometry">
            <Array as="points">
              <mxPoint x="90" y="599" />
              <mxPoint x="90" y="570" />
              <mxPoint x="135" y="570" />
            </Array>
          </mxGeometry>
        </mxCell>
        <mxCell id="GW-0ELmirw-C5afW0s54-4" style="edgeStyle=orthogonalEdgeStyle;rounded=1;orthogonalLoop=1;jettySize=auto;html=1;exitX=1;exitY=0.3333333333333333;exitDx=0;exitDy=0;exitPerimeter=0;entryX=0;entryY=0.5;entryDx=0;entryDy=0;curved=0;fillColor=#60a917;strokeColor=#2D7600;endArrow=none;endFill=0;" parent="1" source="CfmcXVOaQfcL6Jrz_3zt-5" target="CfmcXVOaQfcL6Jrz_3zt-12" edge="1">
          <mxGeometry relative="1" as="geometry">
            <Array as="points">
              <mxPoint x="90" y="599" />
              <mxPoint x="90" y="750" />
            </Array>
          </mxGeometry>
        </mxCell>
        <mxCell id="RnD1XmNKYKSBcxlzAFA2-1" style="edgeStyle=orthogonalEdgeStyle;rounded=1;orthogonalLoop=1;jettySize=auto;html=1;exitX=1;exitY=0.3333333333333333;exitDx=0;exitDy=0;exitPerimeter=0;entryX=0.5;entryY=1;entryDx=0;entryDy=0;endArrow=none;endFill=0;curved=0;fillColor=#60a917;strokeColor=#2D7600;" parent="1" source="CfmcXVOaQfcL6Jrz_3zt-5" target="CfmcXVOaQfcL6Jrz_3zt-19" edge="1">
          <mxGeometry relative="1" as="geometry">
            <Array as="points">
              <mxPoint x="90" y="599" />
              <mxPoint x="90" y="800" />
              <mxPoint x="320" y="800" />
              <mxPoint x="320" y="769" />
            </Array>
          </mxGeometry>
        </mxCell>
        <mxCell id="CfmcXVOaQfcL6Jrz_3zt-5" value="&lt;font color=&quot;#2d7600&quot;&gt;Signed User&lt;/font&gt;" style="shape=umlActor;verticalLabelPosition=bottom;verticalAlign=top;html=1;strokeWidth=2;fontStyle=1;fillColor=default;fontColor=#ffffff;strokeColor=#2D7600;" parent="1" vertex="1">
          <mxGeometry x="20" y="579" width="30" height="60" as="geometry" />
        </mxCell>
        <mxCell id="CfmcXVOaQfcL6Jrz_3zt-57" style="edgeStyle=orthogonalEdgeStyle;curved=0;rounded=1;orthogonalLoop=1;jettySize=auto;html=1;exitX=0;exitY=0.3333333333333333;exitDx=0;exitDy=0;exitPerimeter=0;entryX=1;entryY=0.5;entryDx=0;entryDy=0;elbow=vertical;endArrow=none;endFill=0;fillColor=#e51400;strokeColor=#B20000;" parent="1" source="CfmcXVOaQfcL6Jrz_3zt-8" target="CfmcXVOaQfcL6Jrz_3zt-34" edge="1">
          <mxGeometry relative="1" as="geometry">
            <Array as="points">
              <mxPoint x="770" y="330" />
              <mxPoint x="770" y="93" />
            </Array>
          </mxGeometry>
        </mxCell>
        <mxCell id="CfmcXVOaQfcL6Jrz_3zt-141" style="edgeStyle=none;rounded=1;orthogonalLoop=1;jettySize=auto;html=1;exitX=0;exitY=0.3333333333333333;exitDx=0;exitDy=0;exitPerimeter=0;entryX=1;entryY=0.5;entryDx=0;entryDy=0;elbow=vertical;curved=0;fillColor=#e51400;strokeColor=#B20000;endArrow=none;endFill=0;" parent="1" source="CfmcXVOaQfcL6Jrz_3zt-8" target="CfmcXVOaQfcL6Jrz_3zt-37" edge="1">
          <mxGeometry relative="1" as="geometry">
            <Array as="points">
              <mxPoint x="770" y="330" />
              <mxPoint x="770" y="400" />
            </Array>
          </mxGeometry>
        </mxCell>
        <mxCell id="CfmcXVOaQfcL6Jrz_3zt-193" style="edgeStyle=none;rounded=1;orthogonalLoop=1;jettySize=auto;html=1;exitX=0;exitY=0.3333333333333333;exitDx=0;exitDy=0;exitPerimeter=0;entryX=1;entryY=0.5;entryDx=0;entryDy=0;elbow=vertical;curved=0;fillColor=#e51400;strokeColor=#B20000;endArrow=none;endFill=0;" parent="1" source="CfmcXVOaQfcL6Jrz_3zt-8" target="CfmcXVOaQfcL6Jrz_3zt-14" edge="1">
          <mxGeometry relative="1" as="geometry">
            <Array as="points">
              <mxPoint x="770" y="330" />
              <mxPoint x="770" y="460" />
            </Array>
          </mxGeometry>
        </mxCell>
        <mxCell id="CfmcXVOaQfcL6Jrz_3zt-258" style="edgeStyle=none;rounded=1;orthogonalLoop=1;jettySize=auto;html=1;exitX=0;exitY=0.3333333333333333;exitDx=0;exitDy=0;exitPerimeter=0;entryX=0.5;entryY=0;entryDx=0;entryDy=0;elbow=vertical;fillColor=#e51400;strokeColor=#B20000;curved=0;endArrow=none;endFill=0;" parent="1" source="CfmcXVOaQfcL6Jrz_3zt-8" target="CfmcXVOaQfcL6Jrz_3zt-243" edge="1">
          <mxGeometry relative="1" as="geometry">
            <Array as="points">
              <mxPoint x="770" y="330" />
              <mxPoint x="770" y="510" />
              <mxPoint x="724" y="510" />
            </Array>
          </mxGeometry>
        </mxCell>
        <mxCell id="CfmcXVOaQfcL6Jrz_3zt-8" value="&lt;b&gt;Admin&lt;/b&gt;" style="shape=umlActor;verticalLabelPosition=bottom;verticalAlign=top;html=1;strokeWidth=2;fillColor=#e51400;fontColor=#e31400;strokeColor=#B20000;" parent="1" vertex="1">
          <mxGeometry x="810" y="310" width="30" height="60" as="geometry" />
        </mxCell>
        <mxCell id="CfmcXVOaQfcL6Jrz_3zt-53" style="edgeStyle=none;rounded=0;orthogonalLoop=1;jettySize=auto;html=1;exitX=1;exitY=0;exitDx=0;exitDy=0;entryX=0;entryY=0.5;entryDx=0;entryDy=0;elbow=vertical;dashed=1;endArrow=open;endFill=0;strokeColor=#B09500;" parent="1" source="CfmcXVOaQfcL6Jrz_3zt-10" target="CfmcXVOaQfcL6Jrz_3zt-42" edge="1">
          <mxGeometry relative="1" as="geometry" />
        </mxCell>
        <mxCell id="CfmcXVOaQfcL6Jrz_3zt-86" value="&lt;font style=&quot;font-size: 9px;&quot;&gt;&amp;lt;&amp;lt;include&amp;gt;&amp;gt;&lt;/font&gt;" style="edgeLabel;html=1;align=center;verticalAlign=middle;resizable=0;points=[];rotation=15;fontColor=#E3C800;" parent="CfmcXVOaQfcL6Jrz_3zt-53" vertex="1" connectable="0">
          <mxGeometry x="-0.1291" y="2" relative="1" as="geometry">
            <mxPoint as="offset" />
          </mxGeometry>
        </mxCell>
        <mxCell id="CfmcXVOaQfcL6Jrz_3zt-10" value="Login" style="ellipse;whiteSpace=wrap;html=1;fontColor=#E3C800;strokeColor=#B09500;" parent="1" vertex="1">
          <mxGeometry x="120" y="160" width="80" height="40" as="geometry" />
        </mxCell>
        <mxCell id="CfmcXVOaQfcL6Jrz_3zt-171" style="edgeStyle=none;rounded=1;orthogonalLoop=1;jettySize=auto;html=1;exitX=0.5;exitY=0;exitDx=0;exitDy=0;entryX=1;entryY=1;entryDx=0;entryDy=0;elbow=vertical;endArrow=open;endFill=0;dashed=1;curved=0;strokeColor=#B09500;" parent="1" source="CfmcXVOaQfcL6Jrz_3zt-11" target="CfmcXVOaQfcL6Jrz_3zt-168" edge="1">
          <mxGeometry relative="1" as="geometry" />
        </mxCell>
        <mxCell id="CfmcXVOaQfcL6Jrz_3zt-172" value="&lt;font style=&quot;font-size: 9px;&quot;&gt;&amp;lt;&amp;lt;include&amp;gt;&amp;gt;&lt;/font&gt;" style="edgeLabel;html=1;align=center;verticalAlign=middle;resizable=0;points=[];rotation=-15;fontColor=#E3C800;" parent="CfmcXVOaQfcL6Jrz_3zt-171" vertex="1" connectable="0">
          <mxGeometry x="-0.1275" relative="1" as="geometry">
            <mxPoint x="2" y="-2" as="offset" />
          </mxGeometry>
        </mxCell>
        <mxCell id="CfmcXVOaQfcL6Jrz_3zt-188" style="edgeStyle=none;rounded=1;orthogonalLoop=1;jettySize=auto;html=1;exitX=1;exitY=0.5;exitDx=0;exitDy=0;entryX=0;entryY=0.5;entryDx=0;entryDy=0;elbow=vertical;endArrow=block;endFill=0;curved=0;fontColor=#E31400;strokeColor=#B20000;" parent="1" source="CfmcXVOaQfcL6Jrz_3zt-11" target="CfmcXVOaQfcL6Jrz_3zt-34" edge="1">
          <mxGeometry relative="1" as="geometry">
            <Array as="points">
              <mxPoint x="600" y="160" />
              <mxPoint x="600" y="93" />
            </Array>
          </mxGeometry>
        </mxCell>
        <mxCell id="CfmcXVOaQfcL6Jrz_3zt-11" value="Create account" style="ellipse;whiteSpace=wrap;html=1;fontColor=default;strokeColor=default;" parent="1" vertex="1">
          <mxGeometry x="420" y="145" width="100" height="30" as="geometry" />
        </mxCell>
        <mxCell id="CfmcXVOaQfcL6Jrz_3zt-12" value="Browse&lt;div&gt;&quot;Clothes Gallery&quot;&lt;/div&gt;" style="ellipse;whiteSpace=wrap;html=1;fillColor=default;fontColor=#60a917;strokeColor=#2D7600;" parent="1" vertex="1">
          <mxGeometry x="135" y="725" width="110" height="50" as="geometry" />
        </mxCell>
        <mxCell id="CfmcXVOaQfcL6Jrz_3zt-182" style="edgeStyle=none;rounded=1;orthogonalLoop=1;jettySize=auto;html=1;exitX=0;exitY=1;exitDx=0;exitDy=0;elbow=vertical;endArrow=none;endFill=0;curved=0;" parent="1" source="CfmcXVOaQfcL6Jrz_3zt-13" edge="1">
          <mxGeometry relative="1" as="geometry">
            <mxPoint x="440" y="330" as="targetPoint" />
            <Array as="points">
              <mxPoint x="450" y="330" />
            </Array>
          </mxGeometry>
        </mxCell>
        <mxCell id="--wB-XkUsaIhxWmXg_Ob-29" style="edgeStyle=none;rounded=1;orthogonalLoop=1;jettySize=auto;html=1;exitX=1;exitY=0;exitDx=0;exitDy=0;entryX=0;entryY=0.5;entryDx=0;entryDy=0;curved=0;endArrow=open;endFill=0;dashed=1;" parent="1" source="CfmcXVOaQfcL6Jrz_3zt-13" target="--wB-XkUsaIhxWmXg_Ob-25" edge="1">
          <mxGeometry relative="1" as="geometry">
            <Array as="points">
              <mxPoint x="590" y="230" />
            </Array>
          </mxGeometry>
        </mxCell>
        <mxCell id="--wB-XkUsaIhxWmXg_Ob-30" value="&lt;font style=&quot;font-size: 9px;&quot;&gt;&amp;lt;&amp;lt;include&amp;gt;&amp;gt;&lt;/font&gt;" style="edgeLabel;html=1;align=center;verticalAlign=middle;resizable=0;points=[];" parent="--wB-XkUsaIhxWmXg_Ob-29" vertex="1" connectable="0">
          <mxGeometry x="-0.0237" y="-1" relative="1" as="geometry">
            <mxPoint x="6" y="8" as="offset" />
          </mxGeometry>
        </mxCell>
        <mxCell id="CfmcXVOaQfcL6Jrz_3zt-13" value="Change email" style="ellipse;whiteSpace=wrap;html=1;" parent="1" vertex="1">
          <mxGeometry x="500" y="260" width="83" height="40" as="geometry" />
        </mxCell>
        <mxCell id="CfmcXVOaQfcL6Jrz_3zt-14" value="Add clothes to database" style="ellipse;whiteSpace=wrap;html=1;fontColor=#E31400;strokeColor=#B20000;" parent="1" vertex="1">
          <mxGeometry x="637" y="437.5" width="113" height="45" as="geometry" />
        </mxCell>
        <mxCell id="CfmcXVOaQfcL6Jrz_3zt-16" value="Follow/Unfollow users" style="ellipse;whiteSpace=wrap;html=1;strokeColor=#2D7600;fontColor=#60A917;" parent="1" vertex="1">
          <mxGeometry x="665" y="790" width="106.5" height="40" as="geometry" />
        </mxCell>
        <mxCell id="CfmcXVOaQfcL6Jrz_3zt-17" value="Manage closets" style="ellipse;whiteSpace=wrap;html=1;strokeColor=#2D7600;fontColor=#60A917;" parent="1" vertex="1">
          <mxGeometry x="284" y="820" width="96" height="40" as="geometry" />
        </mxCell>
        <mxCell id="RnD1XmNKYKSBcxlzAFA2-4" style="edgeStyle=none;rounded=1;orthogonalLoop=1;jettySize=auto;html=1;exitX=1;exitY=0.5;exitDx=0;exitDy=0;entryX=0;entryY=0.5;entryDx=0;entryDy=0;endArrow=block;endFill=0;curved=0;fillColor=#60a917;strokeColor=#2D7600;" parent="1" source="CfmcXVOaQfcL6Jrz_3zt-18" target="CfmcXVOaQfcL6Jrz_3zt-17" edge="1">
          <mxGeometry relative="1" as="geometry">
            <Array as="points">
              <mxPoint x="260" y="840" />
            </Array>
          </mxGeometry>
        </mxCell>
        <mxCell id="CfmcXVOaQfcL6Jrz_3zt-18" value="View &quot;All Clothes&quot; closet" style="ellipse;whiteSpace=wrap;html=1;fillColor=default;fontColor=#60a917;strokeColor=#2D7600;" parent="1" vertex="1">
          <mxGeometry x="127.5" y="830" width="120" height="50" as="geometry" />
        </mxCell>
        <mxCell id="CfmcXVOaQfcL6Jrz_3zt-19" value="Create outfits" style="ellipse;whiteSpace=wrap;html=1;fillColor=default;fontColor=#60a917;strokeColor=#2D7600;" parent="1" vertex="1">
          <mxGeometry x="271" y="741" width="97.5" height="38" as="geometry" />
        </mxCell>
        <mxCell id="CJZJnSRUZcpcNnFTIrwE-15" style="edgeStyle=none;rounded=1;orthogonalLoop=1;jettySize=auto;html=1;exitX=0.348;exitY=0.97;exitDx=0;exitDy=0;endArrow=none;endFill=0;curved=0;fillColor=#60a917;strokeColor=#2D7600;fontColor=#60a917;exitPerimeter=0;" parent="1" source="CfmcXVOaQfcL6Jrz_3zt-20" edge="1">
          <mxGeometry relative="1" as="geometry">
            <mxPoint x="400" y="760" as="targetPoint" />
            <Array as="points">
              <mxPoint x="420" y="760" />
            </Array>
          </mxGeometry>
        </mxCell>
        <mxCell id="CfmcXVOaQfcL6Jrz_3zt-20" value="Use &quot;Ubiór Layout&quot;" style="ellipse;whiteSpace=wrap;html=1;fillColor=default;fontColor=#60a917;strokeColor=#2D7600;" parent="1" vertex="1">
          <mxGeometry x="403" y="671.5" width="125" height="41" as="geometry" />
        </mxCell>
        <mxCell id="CfmcXVOaQfcL6Jrz_3zt-21" value="Post clothes/outfits" style="ellipse;whiteSpace=wrap;html=1;strokeColor=#2D7600;fontColor=#60A917;" parent="1" vertex="1">
          <mxGeometry x="557" y="839" width="125" height="40" as="geometry" />
        </mxCell>
        <mxCell id="CfmcXVOaQfcL6Jrz_3zt-100" style="edgeStyle=none;rounded=1;orthogonalLoop=1;jettySize=auto;html=1;exitX=0;exitY=0;exitDx=0;exitDy=0;entryX=0;entryY=1;entryDx=0;entryDy=0;elbow=vertical;endArrow=open;endFill=0;dashed=1;curved=0;" parent="1" source="CfmcXVOaQfcL6Jrz_3zt-22" target="CfmcXVOaQfcL6Jrz_3zt-35" edge="1">
          <mxGeometry relative="1" as="geometry">
            <Array as="points">
              <mxPoint x="160" y="370" />
            </Array>
          </mxGeometry>
        </mxCell>
        <mxCell id="CfmcXVOaQfcL6Jrz_3zt-101" value="&lt;font style=&quot;font-size: 9px;&quot;&gt;&amp;lt;&amp;lt;include&amp;gt;&amp;gt;&lt;/font&gt;" style="edgeLabel;html=1;align=center;verticalAlign=middle;resizable=0;points=[];rotation=0;" parent="CfmcXVOaQfcL6Jrz_3zt-100" vertex="1" connectable="0">
          <mxGeometry x="-0.143" relative="1" as="geometry">
            <mxPoint x="-1" y="-3" as="offset" />
          </mxGeometry>
        </mxCell>
        <mxCell id="CfmcXVOaQfcL6Jrz_3zt-22" value="Browse feed" style="ellipse;whiteSpace=wrap;html=1;" parent="1" vertex="1">
          <mxGeometry x="155" y="402" width="100" height="37" as="geometry" />
        </mxCell>
        <mxCell id="CfmcXVOaQfcL6Jrz_3zt-23" value="Like posts" style="ellipse;whiteSpace=wrap;html=1;strokeColor=#2D7600;fontColor=#60A917;" parent="1" vertex="1">
          <mxGeometry x="135" y="488.5" width="85" height="33" as="geometry" />
        </mxCell>
        <mxCell id="CfmcXVOaQfcL6Jrz_3zt-194" style="edgeStyle=none;rounded=1;orthogonalLoop=1;jettySize=auto;html=1;exitX=1;exitY=0;exitDx=0;exitDy=0;entryX=0;entryY=0.5;entryDx=0;entryDy=0;elbow=vertical;endArrow=block;endFill=0;curved=0;fontColor=#E31400;strokeColor=#B20000;" parent="1" source="CfmcXVOaQfcL6Jrz_3zt-25" target="CfmcXVOaQfcL6Jrz_3zt-14" edge="1">
          <mxGeometry relative="1" as="geometry">
            <Array as="points">
              <mxPoint x="540" y="560" />
              <mxPoint x="540" y="480" />
              <mxPoint x="620" y="480" />
            </Array>
          </mxGeometry>
        </mxCell>
        <mxCell id="CfmcXVOaQfcL6Jrz_3zt-215" style="edgeStyle=none;rounded=1;orthogonalLoop=1;jettySize=auto;html=1;exitX=0;exitY=0.5;exitDx=0;exitDy=0;entryX=0.897;entryY=0.813;entryDx=0;entryDy=0;elbow=vertical;curved=0;endArrow=block;endFill=0;strokeWidth=1;jumpStyle=arc;entryPerimeter=0;fillColor=#60a917;strokeColor=#2D7600;fontColor=#60a917;" parent="1" source="CfmcXVOaQfcL6Jrz_3zt-25" target="CfmcXVOaQfcL6Jrz_3zt-67" edge="1">
          <mxGeometry relative="1" as="geometry">
            <Array as="points">
              <mxPoint x="340" y="680" />
              <mxPoint x="280" y="680" />
              <mxPoint x="280" y="630" />
            </Array>
          </mxGeometry>
        </mxCell>
        <mxCell id="CJZJnSRUZcpcNnFTIrwE-20" style="edgeStyle=none;rounded=1;orthogonalLoop=1;jettySize=auto;html=1;exitX=0;exitY=1;exitDx=0;exitDy=0;entryX=0.5;entryY=0;entryDx=0;entryDy=0;curved=0;endArrow=block;endFill=0;fillColor=#60a917;strokeColor=#2D7600;fontColor=#60a917;" parent="1" source="CfmcXVOaQfcL6Jrz_3zt-25" target="CfmcXVOaQfcL6Jrz_3zt-19" edge="1">
          <mxGeometry relative="1" as="geometry">
            <Array as="points">
              <mxPoint x="320" y="720" />
            </Array>
          </mxGeometry>
        </mxCell>
        <mxCell id="CfmcXVOaQfcL6Jrz_3zt-25" value="Upload images" style="ellipse;whiteSpace=wrap;html=1;" parent="1" vertex="1">
          <mxGeometry x="410" y="611.5" width="110" height="38" as="geometry" />
        </mxCell>
        <mxCell id="CfmcXVOaQfcL6Jrz_3zt-198" style="edgeStyle=none;rounded=0;orthogonalLoop=1;jettySize=auto;html=1;exitX=0.5;exitY=1;exitDx=0;exitDy=0;entryX=0.5;entryY=0;entryDx=0;entryDy=0;elbow=vertical;endArrow=block;endFill=0;fillColor=#60a917;strokeColor=#2D7600;fontColor=#60a917;" parent="1" source="CfmcXVOaQfcL6Jrz_3zt-26" target="CfmcXVOaQfcL6Jrz_3zt-12" edge="1">
          <mxGeometry relative="1" as="geometry" />
        </mxCell>
        <mxCell id="GW-0ELmirw-C5afW0s54-6" style="edgeStyle=orthogonalEdgeStyle;rounded=0;orthogonalLoop=1;jettySize=auto;html=1;exitX=0.5;exitY=0;exitDx=0;exitDy=0;entryX=0.5;entryY=1;entryDx=0;entryDy=0;endArrow=block;endFill=0;fillColor=#60a917;strokeColor=#2D7600;" parent="1" source="CfmcXVOaQfcL6Jrz_3zt-26" target="CfmcXVOaQfcL6Jrz_3zt-67" edge="1">
          <mxGeometry relative="1" as="geometry" />
        </mxCell>
        <mxCell id="CfmcXVOaQfcL6Jrz_3zt-26" value="Add clothes from&lt;div&gt;&quot;Clothes Gallery&quot;&lt;/div&gt;" style="ellipse;whiteSpace=wrap;html=1;fillColor=default;fontColor=#60a917;strokeColor=#2D7600;" parent="1" vertex="1">
          <mxGeometry x="133" y="634.5" width="115" height="50" as="geometry" />
        </mxCell>
        <mxCell id="CfmcXVOaQfcL6Jrz_3zt-189" style="edgeStyle=none;rounded=1;orthogonalLoop=1;jettySize=auto;html=1;elbow=vertical;curved=0;endArrow=none;endFill=0;fontColor=#E31400;strokeColor=#B20000;" parent="1" source="CfmcXVOaQfcL6Jrz_3zt-28" edge="1">
          <mxGeometry relative="1" as="geometry">
            <mxPoint x="600" y="110" as="targetPoint" />
            <Array as="points">
              <mxPoint x="560" y="120" />
              <mxPoint x="600" y="120" />
            </Array>
          </mxGeometry>
        </mxCell>
        <mxCell id="CfmcXVOaQfcL6Jrz_3zt-28" value="Suspend account" style="ellipse;whiteSpace=wrap;html=1;fontColor=#E31400;strokeColor=#B20000;" parent="1" vertex="1">
          <mxGeometry x="475" y="70" width="110" height="40" as="geometry" />
        </mxCell>
        <mxCell id="CfmcXVOaQfcL6Jrz_3zt-135" style="edgeStyle=none;rounded=1;orthogonalLoop=1;jettySize=auto;html=1;exitX=1;exitY=0;exitDx=0;exitDy=0;elbow=vertical;endArrow=none;endFill=0;curved=0;fontColor=#E31400;strokeColor=#B20000;" parent="1" source="CfmcXVOaQfcL6Jrz_3zt-29" edge="1">
          <mxGeometry relative="1" as="geometry">
            <mxPoint x="580" y="160" as="targetPoint" />
            <Array as="points">
              <mxPoint x="540" y="217" />
              <mxPoint x="570" y="160" />
            </Array>
          </mxGeometry>
        </mxCell>
        <mxCell id="CfmcXVOaQfcL6Jrz_3zt-29" value="Update account/profile" style="ellipse;whiteSpace=wrap;html=1;" parent="1" vertex="1">
          <mxGeometry x="375" y="210" width="100" height="50" as="geometry" />
        </mxCell>
        <mxCell id="CfmcXVOaQfcL6Jrz_3zt-143" style="edgeStyle=none;rounded=1;orthogonalLoop=1;jettySize=auto;html=1;exitX=0.5;exitY=0;exitDx=0;exitDy=0;elbow=vertical;endArrow=none;endFill=0;curved=0;" parent="1" source="CfmcXVOaQfcL6Jrz_3zt-30" edge="1">
          <mxGeometry relative="1" as="geometry">
            <mxPoint x="440" y="330" as="targetPoint" />
            <Array as="points">
              <mxPoint x="410" y="330" />
            </Array>
          </mxGeometry>
        </mxCell>
        <mxCell id="CJZJnSRUZcpcNnFTIrwE-8" style="edgeStyle=none;rounded=1;orthogonalLoop=1;jettySize=auto;html=1;exitX=1;exitY=0;exitDx=0;exitDy=0;entryX=0.5;entryY=1;entryDx=0;entryDy=0;endArrow=open;endFill=0;dashed=1;curved=0;" parent="1" source="CfmcXVOaQfcL6Jrz_3zt-115" target="CJZJnSRUZcpcNnFTIrwE-4" edge="1">
          <mxGeometry relative="1" as="geometry">
            <Array as="points">
              <mxPoint x="700" y="350" />
            </Array>
          </mxGeometry>
        </mxCell>
        <mxCell id="CJZJnSRUZcpcNnFTIrwE-9" value="&lt;font style=&quot;font-size: 9px;&quot;&gt;&amp;lt;&amp;lt;include&amp;gt;&amp;gt;&lt;/font&gt;" style="edgeLabel;html=1;align=center;verticalAlign=middle;resizable=0;points=[];rotation=0;" parent="CJZJnSRUZcpcNnFTIrwE-8" vertex="1" connectable="0">
          <mxGeometry x="-0.1817" y="-2" relative="1" as="geometry">
            <mxPoint x="44" y="-14" as="offset" />
          </mxGeometry>
        </mxCell>
        <mxCell id="CfmcXVOaQfcL6Jrz_3zt-30" value="Change profile picture" style="ellipse;whiteSpace=wrap;html=1;" parent="1" vertex="1">
          <mxGeometry x="360" y="370" width="100" height="50" as="geometry" />
        </mxCell>
        <mxCell id="CfmcXVOaQfcL6Jrz_3zt-218" style="edgeStyle=none;rounded=1;orthogonalLoop=1;jettySize=auto;html=1;exitX=0;exitY=0.5;exitDx=0;exitDy=0;entryX=1;entryY=0.5;entryDx=0;entryDy=0;elbow=vertical;curved=0;endArrow=block;endFill=0;fillColor=#60a917;strokeColor=#2D7600;fontColor=#60a917;" parent="1" source="CfmcXVOaQfcL6Jrz_3zt-31" target="CfmcXVOaQfcL6Jrz_3zt-19" edge="1">
          <mxGeometry relative="1" as="geometry">
            <Array as="points">
              <mxPoint x="430" y="760" />
            </Array>
          </mxGeometry>
        </mxCell>
        <mxCell id="CfmcXVOaQfcL6Jrz_3zt-31" value="Use &quot;Place Freely&quot;" style="ellipse;whiteSpace=wrap;html=1;fillColor=default;fontColor=#60a917;strokeColor=#2D7600;" parent="1" vertex="1">
          <mxGeometry x="460" y="725" width="120" height="40" as="geometry" />
        </mxCell>
        <mxCell id="CfmcXVOaQfcL6Jrz_3zt-49" style="edgeStyle=orthogonalEdgeStyle;curved=0;rounded=1;orthogonalLoop=1;jettySize=auto;html=1;exitX=1;exitY=0.3333333333333333;exitDx=0;exitDy=0;exitPerimeter=0;entryX=0;entryY=0.5;entryDx=0;entryDy=0;elbow=vertical;fillColor=#e3c800;strokeColor=#B09500;endArrow=none;endFill=0;" parent="1" source="CfmcXVOaQfcL6Jrz_3zt-33" target="CfmcXVOaQfcL6Jrz_3zt-10" edge="1">
          <mxGeometry relative="1" as="geometry">
            <Array as="points">
              <mxPoint x="100" y="269" />
              <mxPoint x="100" y="180" />
            </Array>
          </mxGeometry>
        </mxCell>
        <mxCell id="CJZJnSRUZcpcNnFTIrwE-21" style="edgeStyle=none;rounded=1;orthogonalLoop=1;jettySize=auto;html=1;exitX=1;exitY=0.3333333333333333;exitDx=0;exitDy=0;exitPerimeter=0;entryX=0;entryY=1;entryDx=0;entryDy=0;endArrow=none;endFill=0;fillColor=#e3c800;strokeColor=#B09500;curved=0;" parent="1" source="CfmcXVOaQfcL6Jrz_3zt-33" target="CfmcXVOaQfcL6Jrz_3zt-11" edge="1">
          <mxGeometry relative="1" as="geometry">
            <Array as="points">
              <mxPoint x="100" y="270" />
              <mxPoint x="100" y="230" />
              <mxPoint x="340" y="230" />
              <mxPoint x="370" y="200" />
              <mxPoint x="420" y="190" />
            </Array>
          </mxGeometry>
        </mxCell>
        <mxCell id="CfmcXVOaQfcL6Jrz_3zt-33" value="&lt;b&gt;End User&lt;/b&gt;" style="shape=umlActor;verticalLabelPosition=bottom;verticalAlign=top;html=1;strokeWidth=2;fillColor=default;fontColor=#b09500;strokeColor=#B09500;" parent="1" vertex="1">
          <mxGeometry x="20" y="249.5" width="30" height="60" as="geometry" />
        </mxCell>
        <mxCell id="CfmcXVOaQfcL6Jrz_3zt-34" value="Manage accounts" style="ellipse;whiteSpace=wrap;html=1;fontColor=#E31400;strokeColor=#B20000;" parent="1" vertex="1">
          <mxGeometry x="640" y="72.5" width="110" height="40" as="geometry" />
        </mxCell>
        <mxCell id="CfmcXVOaQfcL6Jrz_3zt-35" value="Filter feed" style="ellipse;whiteSpace=wrap;html=1;" parent="1" vertex="1">
          <mxGeometry x="157.5" y="300" width="80" height="30" as="geometry" />
        </mxCell>
        <mxCell id="CfmcXVOaQfcL6Jrz_3zt-36" value="Report posts" style="ellipse;whiteSpace=wrap;html=1;strokeColor=default;fontColor=default;" parent="1" vertex="1">
          <mxGeometry x="387.5" y="460.5" width="90" height="39" as="geometry" />
        </mxCell>
        <mxCell id="CfmcXVOaQfcL6Jrz_3zt-123" style="edgeStyle=none;rounded=1;orthogonalLoop=1;jettySize=auto;html=1;exitX=0;exitY=1;exitDx=0;exitDy=0;entryX=1;entryY=0;entryDx=0;entryDy=0;elbow=vertical;endArrow=open;endFill=0;dashed=1;curved=0;fontColor=#E31400;strokeColor=#B20000;" parent="1" source="CfmcXVOaQfcL6Jrz_3zt-37" target="CfmcXVOaQfcL6Jrz_3zt-36" edge="1">
          <mxGeometry relative="1" as="geometry">
            <Array as="points">
              <mxPoint x="600" y="450" />
              <mxPoint x="490" y="450" />
            </Array>
          </mxGeometry>
        </mxCell>
        <mxCell id="CfmcXVOaQfcL6Jrz_3zt-124" value="&lt;font style=&quot;font-size: 9px;&quot;&gt;&amp;lt;&amp;lt;include&amp;gt;&amp;gt;&lt;/font&gt;" style="edgeLabel;html=1;align=center;verticalAlign=middle;resizable=0;points=[];fontColor=#E31400;" parent="CfmcXVOaQfcL6Jrz_3zt-123" vertex="1" connectable="0">
          <mxGeometry x="0.0011" y="1" relative="1" as="geometry">
            <mxPoint x="-18" y="-1" as="offset" />
          </mxGeometry>
        </mxCell>
        <mxCell id="CfmcXVOaQfcL6Jrz_3zt-37" value="Monitor reports" style="ellipse;whiteSpace=wrap;html=1;fontColor=#E31400;strokeColor=#B20000;" parent="1" vertex="1">
          <mxGeometry x="615" y="380" width="115" height="40" as="geometry" />
        </mxCell>
        <mxCell id="CfmcXVOaQfcL6Jrz_3zt-133" style="edgeStyle=none;rounded=1;orthogonalLoop=1;jettySize=auto;html=1;exitX=0;exitY=0.5;exitDx=0;exitDy=0;elbow=vertical;endArrow=none;endFill=0;curved=0;fontColor=#E31400;strokeColor=#B20000;" parent="1" source="CfmcXVOaQfcL6Jrz_3zt-38" edge="1">
          <mxGeometry relative="1" as="geometry">
            <mxPoint x="600" y="140" as="targetPoint" />
            <Array as="points">
              <mxPoint x="600" y="165" />
              <mxPoint x="600" y="150" />
            </Array>
          </mxGeometry>
        </mxCell>
        <mxCell id="CJZJnSRUZcpcNnFTIrwE-3" style="edgeStyle=none;rounded=1;orthogonalLoop=1;jettySize=auto;html=1;exitX=0;exitY=1;exitDx=0;exitDy=0;endArrow=none;endFill=0;curved=0;" parent="1" source="CfmcXVOaQfcL6Jrz_3zt-38" edge="1">
          <mxGeometry relative="1" as="geometry">
            <mxPoint x="430" y="330" as="targetPoint" />
            <Array as="points">
              <mxPoint x="590" y="176" />
              <mxPoint x="560" y="240" />
              <mxPoint x="500" y="240" />
              <mxPoint x="440" y="330" />
            </Array>
          </mxGeometry>
        </mxCell>
        <mxCell id="CfmcXVOaQfcL6Jrz_3zt-38" value="Delete account" style="ellipse;whiteSpace=wrap;html=1;fontColor=default;strokeColor=default;" parent="1" vertex="1">
          <mxGeometry x="640" y="150" width="105" height="30" as="geometry" />
        </mxCell>
        <mxCell id="CfmcXVOaQfcL6Jrz_3zt-217" style="edgeStyle=none;rounded=1;orthogonalLoop=1;jettySize=auto;html=1;exitX=0;exitY=0.5;exitDx=0;exitDy=0;elbow=vertical;endArrow=none;endFill=0;curved=0;fontColor=#E31400;strokeColor=#B20000;" parent="1" source="CfmcXVOaQfcL6Jrz_3zt-39" edge="1">
          <mxGeometry relative="1" as="geometry">
            <mxPoint x="540" y="500" as="targetPoint" />
            <Array as="points">
              <mxPoint x="540" y="520" />
            </Array>
          </mxGeometry>
        </mxCell>
        <mxCell id="CfmcXVOaQfcL6Jrz_3zt-39" value="Add clothes from external source" style="ellipse;whiteSpace=wrap;html=1;fontColor=#E31400;strokeColor=#B20000;" parent="1" vertex="1">
          <mxGeometry x="570" y="497.5" width="120" height="45" as="geometry" />
        </mxCell>
        <mxCell id="CfmcXVOaQfcL6Jrz_3zt-42" value="Verify login details" style="ellipse;whiteSpace=wrap;html=1;fontColor=default;strokeColor=default;" parent="1" vertex="1">
          <mxGeometry x="240" y="90" width="90" height="45" as="geometry" />
        </mxCell>
        <mxCell id="CfmcXVOaQfcL6Jrz_3zt-55" style="edgeStyle=none;rounded=0;orthogonalLoop=1;jettySize=auto;html=1;exitX=0;exitY=0.5;exitDx=0;exitDy=0;elbow=vertical;dashed=1;endArrow=open;endFill=0;strokeColor=#B09500;" parent="1" source="CfmcXVOaQfcL6Jrz_3zt-44" target="CfmcXVOaQfcL6Jrz_3zt-10" edge="1">
          <mxGeometry relative="1" as="geometry" />
        </mxCell>
        <mxCell id="CfmcXVOaQfcL6Jrz_3zt-87" value="&lt;font style=&quot;font-size: 9px;&quot;&gt;&amp;lt;&amp;lt;extend&amp;gt;&amp;gt;&lt;/font&gt;" style="edgeLabel;html=1;align=center;verticalAlign=middle;resizable=0;points=[];rotation=-25;fontColor=#E3C800;" parent="CfmcXVOaQfcL6Jrz_3zt-55" vertex="1" connectable="0">
          <mxGeometry x="-0.0675" relative="1" as="geometry">
            <mxPoint as="offset" />
          </mxGeometry>
        </mxCell>
        <mxCell id="CfmcXVOaQfcL6Jrz_3zt-169" style="edgeStyle=none;rounded=0;orthogonalLoop=1;jettySize=auto;html=1;exitX=1;exitY=0.5;exitDx=0;exitDy=0;entryX=0;entryY=0.5;entryDx=0;entryDy=0;elbow=vertical;endArrow=open;endFill=0;dashed=1;strokeColor=#B09500;" parent="1" source="CfmcXVOaQfcL6Jrz_3zt-44" target="CfmcXVOaQfcL6Jrz_3zt-11" edge="1">
          <mxGeometry relative="1" as="geometry" />
        </mxCell>
        <mxCell id="CfmcXVOaQfcL6Jrz_3zt-170" value="&lt;font style=&quot;font-size: 9px;&quot;&gt;&amp;lt;&amp;lt;extend&amp;gt;&amp;gt;&lt;/font&gt;" style="edgeLabel;html=1;align=center;verticalAlign=middle;resizable=0;points=[];rotation=30;fontColor=#E3C800;" parent="CfmcXVOaQfcL6Jrz_3zt-169" vertex="1" connectable="0">
          <mxGeometry x="0.0954" relative="1" as="geometry">
            <mxPoint x="-7" as="offset" />
          </mxGeometry>
        </mxCell>
        <mxCell id="CfmcXVOaQfcL6Jrz_3zt-44" value="Display error" style="ellipse;whiteSpace=wrap;html=1;fontColor=default;strokeColor=default;" parent="1" vertex="1">
          <mxGeometry x="265" y="150" width="90" height="40" as="geometry" />
        </mxCell>
        <mxCell id="CfmcXVOaQfcL6Jrz_3zt-142" style="edgeStyle=none;rounded=1;orthogonalLoop=1;jettySize=auto;html=1;exitX=1;exitY=0.5;exitDx=0;exitDy=0;elbow=vertical;endArrow=none;endFill=0;curved=0;" parent="1" source="CfmcXVOaQfcL6Jrz_3zt-65" edge="1">
          <mxGeometry relative="1" as="geometry">
            <mxPoint x="420" y="330" as="targetPoint" />
            <Array as="points">
              <mxPoint x="410" y="330" />
            </Array>
          </mxGeometry>
        </mxCell>
        <mxCell id="CfmcXVOaQfcL6Jrz_3zt-65" value="Change password" style="ellipse;whiteSpace=wrap;html=1;" parent="1" vertex="1">
          <mxGeometry x="260.5" y="275" width="90" height="40" as="geometry" />
        </mxCell>
        <mxCell id="CfmcXVOaQfcL6Jrz_3zt-67" value="Add clothes to closet" style="ellipse;whiteSpace=wrap;html=1;fillColor=default;fontColor=#60a917;strokeColor=#2D7600;" parent="1" vertex="1">
          <mxGeometry x="135" y="547.5" width="110" height="45" as="geometry" />
        </mxCell>
        <mxCell id="CfmcXVOaQfcL6Jrz_3zt-180" style="edgeStyle=orthogonalEdgeStyle;curved=0;rounded=1;orthogonalLoop=1;jettySize=auto;html=1;exitX=1;exitY=0.3333333333333333;exitDx=0;exitDy=0;exitPerimeter=0;elbow=vertical;endArrow=none;endFill=0;fillColor=#60a917;strokeColor=#2D7600;entryX=0;entryY=0.5;entryDx=0;entryDy=0;jumpStyle=none;" parent="1" source="CfmcXVOaQfcL6Jrz_3zt-5" target="CfmcXVOaQfcL6Jrz_3zt-23" edge="1">
          <mxGeometry relative="1" as="geometry">
            <mxPoint x="52.5" y="604" as="sourcePoint" />
            <mxPoint x="377.5" y="230" as="targetPoint" />
            <Array as="points">
              <mxPoint x="90" y="599" />
              <mxPoint x="90" y="540" />
              <mxPoint x="120" y="540" />
              <mxPoint x="120" y="505" />
            </Array>
          </mxGeometry>
        </mxCell>
        <mxCell id="CfmcXVOaQfcL6Jrz_3zt-144" style="edgeStyle=none;rounded=1;orthogonalLoop=1;jettySize=auto;html=1;exitX=0;exitY=0;exitDx=0;exitDy=0;elbow=vertical;endArrow=block;endFill=0;entryX=0.5;entryY=1;entryDx=0;entryDy=0;curved=0;" parent="1" source="CfmcXVOaQfcL6Jrz_3zt-115" target="CfmcXVOaQfcL6Jrz_3zt-29" edge="1">
          <mxGeometry relative="1" as="geometry">
            <Array as="points">
              <mxPoint x="460" y="330" />
              <mxPoint x="425" y="330" />
            </Array>
          </mxGeometry>
        </mxCell>
        <mxCell id="CfmcXVOaQfcL6Jrz_3zt-115" value="Change username" style="ellipse;whiteSpace=wrap;html=1;" parent="1" vertex="1">
          <mxGeometry x="493" y="380" width="87" height="40" as="geometry" />
        </mxCell>
        <mxCell id="CfmcXVOaQfcL6Jrz_3zt-126" value="Save posts" style="ellipse;whiteSpace=wrap;html=1;fillColor=default;fontColor=#60A917;strokeColor=#2D7600;labelBorderColor=none;" parent="1" vertex="1">
          <mxGeometry x="250.5" y="486" width="100" height="33" as="geometry" />
        </mxCell>
        <mxCell id="CfmcXVOaQfcL6Jrz_3zt-168" value="Check if&lt;div&gt;account exists&lt;/div&gt;" style="ellipse;whiteSpace=wrap;html=1;fontColor=default;strokeColor=default;" parent="1" vertex="1">
          <mxGeometry x="358" y="74" width="105" height="42.5" as="geometry" />
        </mxCell>
        <mxCell id="CfmcXVOaQfcL6Jrz_3zt-176" style="edgeStyle=none;rounded=1;orthogonalLoop=1;jettySize=auto;html=1;exitX=1;exitY=0.3333333333333333;exitDx=0;exitDy=0;exitPerimeter=0;entryX=0;entryY=0.5;entryDx=0;entryDy=0;elbow=vertical;curved=0;endArrow=none;endFill=0;jumpStyle=arc;" parent="1" source="CfmcXVOaQfcL6Jrz_3zt-173" target="CfmcXVOaQfcL6Jrz_3zt-22" edge="1">
          <mxGeometry relative="1" as="geometry">
            <Array as="points">
              <mxPoint x="100" y="420" />
            </Array>
          </mxGeometry>
        </mxCell>
        <mxCell id="CfmcXVOaQfcL6Jrz_3zt-173" value="User" style="shape=umlActor;verticalLabelPosition=bottom;verticalAlign=top;html=1;strokeWidth=2;fontStyle=1" parent="1" vertex="1">
          <mxGeometry x="20" y="399.5" width="30" height="60" as="geometry" />
        </mxCell>
        <mxCell id="CfmcXVOaQfcL6Jrz_3zt-191" style="edgeStyle=none;rounded=1;orthogonalLoop=1;jettySize=auto;html=1;exitX=1;exitY=1;exitDx=0;exitDy=0;exitPerimeter=0;entryX=0.5;entryY=0;entryDx=0;entryDy=0;entryPerimeter=0;elbow=vertical;fillColor=#e3c800;strokeColor=#B09500;endArrow=block;endFill=0;curved=0;" parent="1" source="CfmcXVOaQfcL6Jrz_3zt-33" target="CfmcXVOaQfcL6Jrz_3zt-173" edge="1">
          <mxGeometry relative="1" as="geometry">
            <Array as="points">
              <mxPoint x="50" y="370" />
              <mxPoint x="35" y="370" />
            </Array>
          </mxGeometry>
        </mxCell>
        <mxCell id="CfmcXVOaQfcL6Jrz_3zt-192" style="edgeStyle=none;rounded=1;orthogonalLoop=1;jettySize=auto;html=1;exitX=0.5;exitY=0;exitDx=0;exitDy=0;exitPerimeter=0;entryX=1;entryY=1;entryDx=0;entryDy=0;entryPerimeter=0;elbow=vertical;endArrow=block;endFill=0;curved=0;fillColor=#60a917;strokeColor=#2D7600;" parent="1" source="CfmcXVOaQfcL6Jrz_3zt-5" target="CfmcXVOaQfcL6Jrz_3zt-173" edge="1">
          <mxGeometry relative="1" as="geometry">
            <Array as="points">
              <mxPoint x="35" y="510" />
              <mxPoint x="50" y="510" />
            </Array>
          </mxGeometry>
        </mxCell>
        <mxCell id="CJZJnSRUZcpcNnFTIrwE-10" style="edgeStyle=none;rounded=1;orthogonalLoop=1;jettySize=auto;html=1;exitX=0.5;exitY=0;exitDx=0;exitDy=0;entryX=0.5;entryY=1;entryDx=0;entryDy=0;endArrow=block;endFill=0;curved=0;fillColor=#60a917;strokeColor=#2D7600;" parent="1" source="CfmcXVOaQfcL6Jrz_3zt-205" target="CfmcXVOaQfcL6Jrz_3zt-126" edge="1">
          <mxGeometry relative="1" as="geometry">
            <Array as="points">
              <mxPoint x="350" y="550" />
              <mxPoint x="300" y="550" />
            </Array>
          </mxGeometry>
        </mxCell>
        <mxCell id="CfmcXVOaQfcL6Jrz_3zt-205" value="Save clothes" style="ellipse;whiteSpace=wrap;html=1;fillColor=default;fontColor=#60A917;strokeColor=#2D7600;" parent="1" vertex="1">
          <mxGeometry x="307" y="594.5" width="85" height="33" as="geometry" />
        </mxCell>
        <mxCell id="CJZJnSRUZcpcNnFTIrwE-11" style="edgeStyle=none;rounded=1;orthogonalLoop=1;jettySize=auto;html=1;exitX=0;exitY=0.5;exitDx=0;exitDy=0;endArrow=none;endFill=0;curved=0;fillColor=#60a917;strokeColor=#2D7600;" parent="1" source="CfmcXVOaQfcL6Jrz_3zt-207" edge="1">
          <mxGeometry relative="1" as="geometry">
            <mxPoint x="340" y="550" as="targetPoint" />
            <Array as="points">
              <mxPoint x="350" y="550" />
            </Array>
          </mxGeometry>
        </mxCell>
        <mxCell id="CfmcXVOaQfcL6Jrz_3zt-207" value="Save outfits" style="ellipse;whiteSpace=wrap;html=1;fillColor=default;fontColor=#60A917;strokeColor=#2D7600;" parent="1" vertex="1">
          <mxGeometry x="380" y="539.5" width="85" height="33" as="geometry" />
        </mxCell>
        <mxCell id="CJZJnSRUZcpcNnFTIrwE-18" style="edgeStyle=none;rounded=1;orthogonalLoop=1;jettySize=auto;html=1;exitX=0;exitY=0;exitDx=0;exitDy=0;entryX=1;entryY=0.5;entryDx=0;entryDy=0;endArrow=block;endFill=0;curved=0;" parent="1" source="CfmcXVOaQfcL6Jrz_3zt-226" target="CfmcXVOaQfcL6Jrz_3zt-25" edge="1">
          <mxGeometry relative="1" as="geometry">
            <Array as="points">
              <mxPoint x="550" y="630" />
            </Array>
          </mxGeometry>
        </mxCell>
        <mxCell id="CfmcXVOaQfcL6Jrz_3zt-226" value="Remove image background" style="ellipse;whiteSpace=wrap;html=1;" parent="1" vertex="1">
          <mxGeometry x="550" y="640.5" width="110" height="38" as="geometry" />
        </mxCell>
        <mxCell id="CJZJnSRUZcpcNnFTIrwE-19" style="edgeStyle=none;rounded=1;orthogonalLoop=1;jettySize=auto;html=1;exitX=0;exitY=1;exitDx=0;exitDy=0;endArrow=none;endFill=0;curved=0;" parent="1" source="CfmcXVOaQfcL6Jrz_3zt-227" edge="1">
          <mxGeometry relative="1" as="geometry">
            <mxPoint x="540" y="630" as="targetPoint" />
            <Array as="points">
              <mxPoint x="560" y="630" />
            </Array>
          </mxGeometry>
        </mxCell>
        <mxCell id="CfmcXVOaQfcL6Jrz_3zt-227" value="Crop image" style="ellipse;whiteSpace=wrap;html=1;" parent="1" vertex="1">
          <mxGeometry x="560" y="574" width="85" height="35" as="geometry" />
        </mxCell>
        <mxCell id="CfmcXVOaQfcL6Jrz_3zt-241" style="edgeStyle=none;rounded=1;orthogonalLoop=1;jettySize=auto;html=1;exitX=0;exitY=1;exitDx=0;exitDy=0;elbow=vertical;endArrow=none;endFill=0;curved=0;strokeColor=#2D7600;" parent="1" source="CfmcXVOaQfcL6Jrz_3zt-233" edge="1">
          <mxGeometry relative="1" as="geometry">
            <mxPoint x="400" y="840" as="targetPoint" />
            <Array as="points">
              <mxPoint x="410" y="840" />
            </Array>
          </mxGeometry>
        </mxCell>
        <mxCell id="CfmcXVOaQfcL6Jrz_3zt-233" value="Create closets" style="ellipse;whiteSpace=wrap;html=1;strokeColor=#2D7600;fontColor=#60A917;" parent="1" vertex="1">
          <mxGeometry x="410" y="790" width="100" height="30" as="geometry" />
        </mxCell>
        <mxCell id="CfmcXVOaQfcL6Jrz_3zt-240" style="edgeStyle=none;rounded=1;orthogonalLoop=1;jettySize=auto;html=1;exitX=0;exitY=0.5;exitDx=0;exitDy=0;entryX=1;entryY=0.5;entryDx=0;entryDy=0;elbow=vertical;curved=0;endArrow=block;endFill=0;strokeColor=#2D7600;" parent="1" source="CfmcXVOaQfcL6Jrz_3zt-234" target="CfmcXVOaQfcL6Jrz_3zt-17" edge="1">
          <mxGeometry relative="1" as="geometry">
            <Array as="points">
              <mxPoint x="410" y="840" />
            </Array>
          </mxGeometry>
        </mxCell>
        <mxCell id="CfmcXVOaQfcL6Jrz_3zt-234" value="Delete closets" style="ellipse;whiteSpace=wrap;html=1;strokeColor=#2D7600;fontColor=#60A917;" parent="1" vertex="1">
          <mxGeometry x="420" y="850" width="100" height="30" as="geometry" />
        </mxCell>
        <mxCell id="CfmcXVOaQfcL6Jrz_3zt-243" value="Manage full application" style="ellipse;whiteSpace=wrap;html=1;fontColor=#E31400;strokeColor=#B20000;" parent="1" vertex="1">
          <mxGeometry x="677" y="542.5" width="94.25" height="45" as="geometry" />
        </mxCell>
        <mxCell id="CJZJnSRUZcpcNnFTIrwE-16" style="edgeStyle=none;rounded=1;orthogonalLoop=1;jettySize=auto;html=1;exitX=1;exitY=0;exitDx=0;exitDy=0;entryX=0.5;entryY=1;entryDx=0;entryDy=0;fillColor=#e51400;strokeColor=#B20000;endArrow=block;endFill=0;curved=0;" parent="1" source="CfmcXVOaQfcL6Jrz_3zt-245" target="CfmcXVOaQfcL6Jrz_3zt-246" edge="1">
          <mxGeometry relative="1" as="geometry">
            <Array as="points">
              <mxPoint x="724" y="680" />
            </Array>
          </mxGeometry>
        </mxCell>
        <mxCell id="CfmcXVOaQfcL6Jrz_3zt-245" value="Fix bugs" style="ellipse;whiteSpace=wrap;html=1;fontColor=#E31400;strokeColor=#B20000;" parent="1" vertex="1">
          <mxGeometry x="600.75" y="696" width="74.25" height="29" as="geometry" />
        </mxCell>
        <mxCell id="CfmcXVOaQfcL6Jrz_3zt-257" style="edgeStyle=none;rounded=0;orthogonalLoop=1;jettySize=auto;html=1;exitX=0.5;exitY=0;exitDx=0;exitDy=0;entryX=0.5;entryY=1;entryDx=0;entryDy=0;elbow=vertical;endArrow=block;endFill=0;fillColor=#e51400;strokeColor=#B20000;" parent="1" source="CfmcXVOaQfcL6Jrz_3zt-246" target="CfmcXVOaQfcL6Jrz_3zt-243" edge="1">
          <mxGeometry relative="1" as="geometry" />
        </mxCell>
        <mxCell id="CfmcXVOaQfcL6Jrz_3zt-246" value="Update application" style="ellipse;whiteSpace=wrap;html=1;fontColor=#E31400;strokeColor=#B20000;" parent="1" vertex="1">
          <mxGeometry x="677.25" y="610" width="94.25" height="45" as="geometry" />
        </mxCell>
        <mxCell id="CJZJnSRUZcpcNnFTIrwE-17" style="edgeStyle=none;rounded=1;orthogonalLoop=1;jettySize=auto;html=1;exitX=0.5;exitY=0;exitDx=0;exitDy=0;endArrow=none;endFill=0;curved=0;fillColor=#e51400;strokeColor=#B20000;" parent="1" source="CfmcXVOaQfcL6Jrz_3zt-247" edge="1">
          <mxGeometry relative="1" as="geometry">
            <mxPoint x="724" y="670" as="targetPoint" />
            <Array as="points">
              <mxPoint x="724" y="690" />
            </Array>
          </mxGeometry>
        </mxCell>
        <mxCell id="CfmcXVOaQfcL6Jrz_3zt-247" value="Add features" style="ellipse;whiteSpace=wrap;html=1;fontColor=#E31400;strokeColor=#B20000;" parent="1" vertex="1">
          <mxGeometry x="690" y="708" width="85" height="34" as="geometry" />
        </mxCell>
        <mxCell id="CJZJnSRUZcpcNnFTIrwE-2" style="edgeStyle=none;rounded=1;orthogonalLoop=1;jettySize=auto;html=1;exitX=0.5;exitY=0;exitDx=0;exitDy=0;entryX=1;entryY=1;entryDx=0;entryDy=0;jumpStyle=arc;endArrow=block;endFill=0;curved=0;" parent="1" source="CfmcXVOaQfcL6Jrz_3zt-25" target="CfmcXVOaQfcL6Jrz_3zt-30" edge="1">
          <mxGeometry relative="1" as="geometry">
            <Array as="points">
              <mxPoint x="500" y="560" />
              <mxPoint x="500" y="440" />
            </Array>
          </mxGeometry>
        </mxCell>
        <mxCell id="CJZJnSRUZcpcNnFTIrwE-4" value="Check if&lt;div&gt;username exists&lt;/div&gt;" style="ellipse;whiteSpace=wrap;html=1;fontColor=default;strokeColor=default;" parent="1" vertex="1">
          <mxGeometry x="643" y="285" width="115" height="40" as="geometry" />
        </mxCell>
        <mxCell id="CJZJnSRUZcpcNnFTIrwE-7" style="edgeStyle=none;rounded=1;orthogonalLoop=1;jettySize=auto;html=1;exitX=1;exitY=0;exitDx=0;exitDy=0;endArrow=none;endFill=0;curved=0;" parent="1" source="CJZJnSRUZcpcNnFTIrwE-5" edge="1">
          <mxGeometry relative="1" as="geometry">
            <mxPoint x="420" y="330" as="targetPoint" />
            <Array as="points">
              <mxPoint x="400" y="330" />
            </Array>
          </mxGeometry>
        </mxCell>
        <mxCell id="CJZJnSRUZcpcNnFTIrwE-5" value="Change name" style="ellipse;whiteSpace=wrap;html=1;" parent="1" vertex="1">
          <mxGeometry x="247" y="357" width="90" height="30" as="geometry" />
        </mxCell>
        <mxCell id="CJZJnSRUZcpcNnFTIrwE-13" style="edgeStyle=none;rounded=1;orthogonalLoop=1;jettySize=auto;html=1;exitX=0;exitY=0.5;exitDx=0;exitDy=0;entryX=0.5;entryY=0;entryDx=0;entryDy=0;endArrow=open;endFill=0;dashed=1;curved=0;" parent="1" source="CJZJnSRUZcpcNnFTIrwE-6" target="CfmcXVOaQfcL6Jrz_3zt-115" edge="1">
          <mxGeometry relative="1" as="geometry">
            <Array as="points">
              <mxPoint x="530" y="340" />
            </Array>
          </mxGeometry>
        </mxCell>
        <mxCell id="CJZJnSRUZcpcNnFTIrwE-14" value="&lt;font style=&quot;font-size: 9px;&quot;&gt;&amp;lt;&amp;lt;extend&amp;gt;&amp;gt;&lt;/font&gt;" style="edgeLabel;html=1;align=center;verticalAlign=middle;resizable=0;points=[];rotation=0;" parent="CJZJnSRUZcpcNnFTIrwE-13" vertex="1" connectable="0">
          <mxGeometry x="-0.0069" relative="1" as="geometry">
            <mxPoint x="2" y="4" as="offset" />
          </mxGeometry>
        </mxCell>
        <mxCell id="--wB-XkUsaIhxWmXg_Ob-26" style="edgeStyle=none;rounded=1;orthogonalLoop=1;jettySize=auto;html=1;exitX=0.5;exitY=0;exitDx=0;exitDy=0;entryX=1;entryY=0.5;entryDx=0;entryDy=0;curved=0;dashed=1;endArrow=open;endFill=0;jumpStyle=arc;" parent="1" source="CJZJnSRUZcpcNnFTIrwE-6" target="CfmcXVOaQfcL6Jrz_3zt-13" edge="1">
          <mxGeometry relative="1" as="geometry">
            <Array as="points">
              <mxPoint x="600" y="300" />
            </Array>
          </mxGeometry>
        </mxCell>
        <mxCell id="--wB-XkUsaIhxWmXg_Ob-27" value="&lt;span style=&quot;font-size: 9px;&quot;&gt;&amp;lt;&amp;lt;extend&amp;gt;&amp;gt;&lt;/span&gt;" style="edgeLabel;html=1;align=center;verticalAlign=middle;resizable=0;points=[];rotation=0;" parent="--wB-XkUsaIhxWmXg_Ob-26" vertex="1" connectable="0">
          <mxGeometry x="-0.4779" y="1" relative="1" as="geometry">
            <mxPoint x="-4" y="-5" as="offset" />
          </mxGeometry>
        </mxCell>
        <mxCell id="CJZJnSRUZcpcNnFTIrwE-6" value="Display error" style="ellipse;whiteSpace=wrap;html=1;fontColor=default;strokeColor=default;" parent="1" vertex="1">
          <mxGeometry x="545" y="319" width="90" height="30" as="geometry" />
        </mxCell>
        <mxCell id="--wB-XkUsaIhxWmXg_Ob-24" style="edgeStyle=none;rounded=1;orthogonalLoop=1;jettySize=auto;html=1;exitX=1;exitY=1;exitDx=0;exitDy=0;curved=0;endArrow=none;endFill=0;fillColor=#60a917;strokeColor=#2D7600;" parent="1" source="--wB-XkUsaIhxWmXg_Ob-1" edge="1">
          <mxGeometry relative="1" as="geometry">
            <mxPoint x="620" y="820" as="targetPoint" />
            <Array as="points">
              <mxPoint x="620" y="810" />
            </Array>
          </mxGeometry>
        </mxCell>
        <mxCell id="--wB-XkUsaIhxWmXg_Ob-1" value="For followers" style="ellipse;whiteSpace=wrap;html=1;strokeColor=#2D7600;fontColor=#60A917;" parent="1" vertex="1">
          <mxGeometry x="529" y="779" width="85" height="30" as="geometry" />
        </mxCell>
        <mxCell id="--wB-XkUsaIhxWmXg_Ob-22" style="edgeStyle=none;rounded=1;orthogonalLoop=1;jettySize=auto;html=1;exitX=0.5;exitY=1;exitDx=0;exitDy=0;entryX=0.5;entryY=0;entryDx=0;entryDy=0;endArrow=block;endFill=0;curved=0;fillColor=#60a917;strokeColor=#2D7600;" parent="1" source="--wB-XkUsaIhxWmXg_Ob-2" target="CfmcXVOaQfcL6Jrz_3zt-21" edge="1">
          <mxGeometry relative="1" as="geometry">
            <Array as="points">
              <mxPoint x="620" y="810" />
            </Array>
          </mxGeometry>
        </mxCell>
        <mxCell id="--wB-XkUsaIhxWmXg_Ob-2" value="For public" style="ellipse;whiteSpace=wrap;html=1;strokeColor=#2D7600;fontColor=#60A917;" parent="1" vertex="1">
          <mxGeometry x="615" y="748" width="75" height="30" as="geometry" />
        </mxCell>
        <mxCell id="--wB-XkUsaIhxWmXg_Ob-25" value="Check if&lt;div&gt;email exists&lt;/div&gt;" style="ellipse;whiteSpace=wrap;html=1;fontColor=default;strokeColor=default;" parent="1" vertex="1">
          <mxGeometry x="630" y="209.5" width="120" height="40" as="geometry" />
        </mxCell>
        <mxCell id="RnD1XmNKYKSBcxlzAFA2-9" style="edgeStyle=orthogonalEdgeStyle;rounded=1;orthogonalLoop=1;jettySize=auto;html=1;exitX=0;exitY=0.3333333333333333;exitDx=0;exitDy=0;exitPerimeter=0;entryX=1;entryY=0.5;entryDx=0;entryDy=0;endArrow=none;endFill=0;fillColor=#0050ef;strokeColor=#001DBC;curved=0;jumpStyle=arc;" parent="1" source="RnD1XmNKYKSBcxlzAFA2-6" target="--wB-XkUsaIhxWmXg_Ob-25" edge="1">
          <mxGeometry relative="1" as="geometry" />
        </mxCell>
        <mxCell id="RnD1XmNKYKSBcxlzAFA2-10" style="edgeStyle=orthogonalEdgeStyle;rounded=1;orthogonalLoop=1;jettySize=auto;html=1;exitX=0;exitY=0.3333333333333333;exitDx=0;exitDy=0;exitPerimeter=0;entryX=1;entryY=0.5;entryDx=0;entryDy=0;endArrow=none;endFill=0;fillColor=#0050ef;strokeColor=#001DBC;curved=0;jumpStyle=arc;" parent="1" source="RnD1XmNKYKSBcxlzAFA2-6" target="CJZJnSRUZcpcNnFTIrwE-4" edge="1">
          <mxGeometry relative="1" as="geometry">
            <Array as="points">
              <mxPoint x="780" y="170" />
              <mxPoint x="780" y="305" />
            </Array>
          </mxGeometry>
        </mxCell>
        <mxCell id="RnD1XmNKYKSBcxlzAFA2-11" style="edgeStyle=orthogonalEdgeStyle;rounded=1;orthogonalLoop=1;jettySize=auto;html=1;exitX=0;exitY=0.3333333333333333;exitDx=0;exitDy=0;exitPerimeter=0;entryX=1;entryY=0;entryDx=0;entryDy=0;endArrow=none;endFill=0;fillColor=#0050ef;strokeColor=#001DBC;curved=0;jumpStyle=arc;" parent="1" source="RnD1XmNKYKSBcxlzAFA2-6" target="CJZJnSRUZcpcNnFTIrwE-6" edge="1">
          <mxGeometry relative="1" as="geometry">
            <Array as="points">
              <mxPoint x="780" y="170" />
              <mxPoint x="780" y="270" />
              <mxPoint x="622" y="270" />
            </Array>
          </mxGeometry>
        </mxCell>
        <mxCell id="RnD1XmNKYKSBcxlzAFA2-12" style="edgeStyle=orthogonalEdgeStyle;rounded=1;orthogonalLoop=1;jettySize=auto;html=1;exitX=0;exitY=0.3333333333333333;exitDx=0;exitDy=0;exitPerimeter=0;entryX=1;entryY=0;entryDx=0;entryDy=0;endArrow=none;endFill=0;fillColor=#0050ef;strokeColor=#001DBC;curved=0;" parent="1" source="RnD1XmNKYKSBcxlzAFA2-6" target="CfmcXVOaQfcL6Jrz_3zt-168" edge="1">
          <mxGeometry relative="1" as="geometry">
            <Array as="points">
              <mxPoint x="780" y="170" />
              <mxPoint x="780" y="60" />
              <mxPoint x="448" y="60" />
              <mxPoint x="448" y="80" />
            </Array>
          </mxGeometry>
        </mxCell>
        <mxCell id="RnD1XmNKYKSBcxlzAFA2-13" style="edgeStyle=orthogonalEdgeStyle;rounded=1;orthogonalLoop=1;jettySize=auto;html=1;exitX=0;exitY=0.3333333333333333;exitDx=0;exitDy=0;exitPerimeter=0;entryX=0.5;entryY=0;entryDx=0;entryDy=0;curved=0;fillColor=#0050ef;strokeColor=#001DBC;endArrow=none;endFill=0;" parent="1" source="RnD1XmNKYKSBcxlzAFA2-6" target="CfmcXVOaQfcL6Jrz_3zt-42" edge="1">
          <mxGeometry relative="1" as="geometry">
            <Array as="points">
              <mxPoint x="780" y="170" />
              <mxPoint x="780" y="60" />
              <mxPoint x="285" y="60" />
            </Array>
          </mxGeometry>
        </mxCell>
        <mxCell id="RnD1XmNKYKSBcxlzAFA2-14" style="edgeStyle=orthogonalEdgeStyle;rounded=1;orthogonalLoop=1;jettySize=auto;html=1;exitX=0;exitY=0.3333333333333333;exitDx=0;exitDy=0;exitPerimeter=0;entryX=1;entryY=0;entryDx=0;entryDy=0;curved=0;endArrow=none;endFill=0;fillColor=#0050ef;strokeColor=#001DBC;" parent="1" source="RnD1XmNKYKSBcxlzAFA2-6" target="CfmcXVOaQfcL6Jrz_3zt-44" edge="1">
          <mxGeometry relative="1" as="geometry">
            <Array as="points">
              <mxPoint x="780" y="170" />
              <mxPoint x="780" y="60" />
              <mxPoint x="342" y="60" />
            </Array>
          </mxGeometry>
        </mxCell>
        <mxCell id="RnD1XmNKYKSBcxlzAFA2-6" value="&lt;b&gt;System&lt;/b&gt;" style="shape=umlActor;verticalLabelPosition=bottom;verticalAlign=top;html=1;strokeWidth=2;fillColor=#0050ef;fontColor=#0050ef;strokeColor=#001DBC;" parent="1" vertex="1">
          <mxGeometry x="810" y="150" width="30" height="60" as="geometry" />
        </mxCell>
        <mxCell id="WsgM8p-42U-ugkuJ-MHo-6" value="&lt;font style=&quot;font-size: 16px;&quot;&gt;Ubiór Application&lt;/font&gt;" style="rounded=0;whiteSpace=wrap;html=1;pointerEvents=0;strokeColor=none;strokeWidth=2;align=center;verticalAlign=middle;fontFamily=Helvetica;fontSize=16;fontColor=default;fontStyle=1;fillColor=none;" vertex="1" parent="1">
          <mxGeometry x="80" y="50" width="150" height="30" as="geometry" />
        </mxCell>
      </root>
    </mxGraphModel>
  </diagram>
</mxfile>
